<svg xmlns="http://www.w3.org/2000/svg" width="30" height="30" fill="none"><style><![CDATA[svg>[id]{display:none}svg>[id]:target{display:inline}]]></style><path id="align-bottom" fill="#000" d="M18 5a1 1 0 0 0-1-1h-4a1 1 0 0 0-1 1v23H3a1 1 0 1 0 0 2h24a1 1 0 1 0 0-2h-9z"/><g id="align-center-horizontal"><path fill="#000" d="M2 13a1 1 0 0 1 1-1h24a1 1 0 0 1 1 1v4a1 1 0 0 1-1 1H3a1 1 0 0 1-1-1z"/><path fill="#000" d="M14 3a1 1 0 1 1 2 0v24a1 1 0 0 1-2 0z"/></g><path id="align-center-vertical" fill="#000" d="M13 2a1 1 0 0 0-1 1v11H3a1 1 0 1 0 0 2h9v11a1 1 0 0 0 1 1h4a1 1 0 0 0 1-1V16h9a1 1 0 0 0 0-2h-9V3a1 1 0 0 0-1-1z"/><g id="align-left"><path fill="#000" d="M0 3a1 1 0 0 1 2 0v24a1 1 0 1 1-2 0z"/><path fill="#000" d="M0 12h25a1 1 0 0 1 1 1v4a1 1 0 0 1-1 1H0z"/></g><g id="align-right"><path fill="#000" d="M4 13a1 1 0 0 1 1-1h25v6H5a1 1 0 0 1-1-1z"/><path fill="#000" d="M28 3a1 1 0 1 1 2 0v24a1 1 0 0 1-2 0z"/></g><path id="align-top" fill="#000" d="M3 0a1 1 0 1 0 0 2h9v23a1 1 0 0 0 1 1h4a1 1 0 0 0 1-1V2h9a1 1 0 1 0 0-2z"/><path id="arrow-left" stroke="#000" stroke-linecap="round" stroke-linejoin="round" stroke-width="2" d="M12.5 21.5 6 15m0 0 6.5-6.5M6 15h18"/><path id="arrowhead-arrow" stroke="#000" stroke-linecap="round" stroke-linejoin="round" stroke-width="2" d="M1 15h26M13 26l16-11L13 4"/><path id="arrowhead-bar" stroke="#000" stroke-linecap="round" stroke-width="2" d="M1 15h28m0 0V2m0 13v13"/><g id="arrowhead-diamond"><path stroke="#000" stroke-width="2" d="m18.414 3.828 9.9 9.9a2 2 0 0 1 0 2.828l-9.9 9.9a2 2 0 0 1-2.828 0l-9.9-9.9a2 2 0 0 1 0-2.828l9.9-9.9a2 2 0 0 1 2.828 0Z"/><path stroke="#000" stroke-linecap="round" stroke-width="2" d="M1 15h4"/></g><g id="arrowhead-dot"><path stroke="#000" stroke-width="2" d="M29 15c0 6.075-4.925 11-11 11S7 21.075 7 15 11.925 4 18 4s11 4.925 11 11Z"/><path stroke="#000" stroke-linecap="round" stroke-width="2" d="M1 15h5"/></g><path id="arrowhead-none" stroke="#000" stroke-linecap="round" stroke-width="2" d="M1 15h28"/><path id="arrowhead-square" stroke="#000" stroke-linecap="round" stroke-width="2" d="M1 15h4m3 12h18a3 3 0 0 0 3-3V6a3 3 0 0 0-3-3H8a3 3 0 0 0-3 3v18a3 3 0 0 0 3 3Z"/><path id="arrowhead-triangle-inverted" fill="#000" d="M1 14a1 1 0 1 0 0 2zM29 2h1a1 1 0 0 0-1.585-.81zm0 26-.585.81A1 1 0 0 0 30 28zM1 16h10v-2H1zM28 2v26h2V2zm1.585 25.19-18-13-1.17 1.62 18 13zm-18-11.38 18-13-1.17-1.62-18 13z"/><path id="arrowhead-triangle" stroke="#000" stroke-linecap="round" stroke-linejoin="round" stroke-width="2" d="M1 15.154h10.692m1-11.692v23.077L28.846 15z"/><path id="blob" fill="#000" d="M1.981 12.472c-.143.222.115.529.351.413.815-.4 1.604-.823 2.375-1.288.227-.137.476.108.329.328-1.904 2.857-6.632 9.873-1.427 10.333 3.16.279 6.33-2.296 9.304-4.985.219-.197.525.062.361.307-2.42 3.634-6.859 11.056-1.025 11.41 5.074.308 3.904-4.392 15.43-10.738.838-.46 1.102-1.412.892-2.34-.372-1.994-4.135-1.962-6.224-1.414-.255.067-.5-.253-.329-.453 2.546-2.986 9.853-10.44 5.252-12.768C23.219-.77 13.918 8.898 9.965 12.541c-.208.191-.435-.022-.267-.25 1.944-2.638 4.488-5.56 4.945-8.597a1.8 1.8 0 0 0-.238-1.214 2.06 2.06 0 0 0-.971-.854C9.124-.284 4.203 9.028 1.98 12.472"/><path id="bring-forward" stroke="#000" stroke-linecap="round" stroke-linejoin="round" stroke-width="2" d="M8.5 12.639 15 6.5m0 0 6.5 6.139M15 6.5v17"/><path id="bring-to-front" stroke="#000" stroke-linecap="round" stroke-linejoin="round" stroke-width="2" d="M8.5 15.5 15 9m0 0 6.5 6.5M15 9v18M3 3h24"/><g id="broken"><path fill="#000" d="M28 12a1 1 0 1 0-2 0v14H12a1 1 0 1 0 0 2h14.9c.552 0 1.1-.548 1.1-1.1zM2 18a1 1 0 1 0 2 0V4h14a1 1 0 1 0 0-2H3.1C2.548 2 2 2.548 2 3.1z"/><rect width="35.946" height="2" x="1.584" y="27.002" fill="#000" rx="1" transform="rotate(-45 1.584 27.002)"/></g><g id="check-circle"><path stroke="#000" stroke-width="2" d="M15 27.295c6.79 0 12.295-5.505 12.295-12.296S21.79 2.704 15 2.704 2.704 8.209 2.704 14.999 8.21 27.295 15 27.295Z"/><path fill="#000" d="M20.708 9.395c.429.28.55.856.269 1.285l-6.314 9.656a.928.928 0 0 1-1.402.18L9.176 16.8a.928.928 0 1 1 1.249-1.374l3.28 2.982 5.717-8.745a.93.93 0 0 1 1.285-.27"/></g><path id="check" fill="#000" d="M22.934 7.454a1.25 1.25 0 0 1 .362 1.73l-8.5 13a1.25 1.25 0 0 1-1.887.24l-5.5-5a1.25 1.25 0 1 1 1.682-1.849l4.415 4.014 7.698-11.773a1.25 1.25 0 0 1 1.73-.362"/><path id="chevron-down" fill="#000" fill-rule="evenodd" d="M6.27 12.316a1 1 0 0 1 1.414-.046L15 19.13l7.316-6.86a1 1 0 1 1 1.368 1.46l-8 7.5a1 1 0 0 1-1.368 0l-8-7.5a1 1 0 0 1-.046-1.414" clip-rule="evenodd"/><path id="chevron-left" fill="#000" fill-rule="evenodd" d="M17.684 6.27a1 1 0 0 1 .045 1.414L10.87 15l6.86 7.316a1 1 0 0 1-1.46 1.368l-7.5-8a1 1 0 0 1 0-1.368l7.5-8a1 1 0 0 1 1.414-.046" clip-rule="evenodd"/><path id="chevron-right" fill="#000" fill-rule="evenodd" d="M12.317 6.27a1 1 0 0 1 1.413.046l7.5 8a1 1 0 0 1 0 1.368l-7.5 8a1 1 0 0 1-1.459-1.368L19.13 15l-6.859-7.316a1 1 0 0 1 .046-1.414" clip-rule="evenodd"/><path id="chevron-up" fill="#000" fill-rule="evenodd" d="M6.27 17.684a1 1 0 0 0 1.414.046L15 10.87l7.316 6.86a1 1 0 1 0 1.368-1.46l-8-7.5a1 1 0 0 0-1.368 0l-8 7.5a1 1 0 0 0-.046 1.414" clip-rule="evenodd"/><path id="chevrons-ne" stroke="#000" stroke-linecap="round" stroke-linejoin="round" stroke-width="2" d="M7.527 8.733 13.795 15l-6.268 6.268m8.678-12.536L22.473 15l-6.268 6.267"/><path id="chevrons-sw" stroke="#000" stroke-linecap="round" stroke-linejoin="round" stroke-width="2" d="M22.473 21.268 16.205 15l6.268-6.268m-8.678 12.536L7.527 15l6.268-6.267"/><g id="clipboard-copied"><path fill="#000" fill-rule="evenodd" d="M8 2v2h10V2zm-2-.5A1.5 1.5 0 0 1 7.5 0h11A1.5 1.5 0 0 1 20 1.5V2h1a3 3 0 0 1 3 3v9h-2V5a1 1 0 0 0-1-1h-1v.5A1.5 1.5 0 0 1 18.5 6h-11A1.5 1.5 0 0 1 6 4.5V4H5a1 1 0 0 0-1 1v20a1 1 0 0 0 1 1h7v2H5a3 3 0 0 1-3-3V5a3 3 0 0 1 3-3h1z" clip-rule="evenodd"/><path fill="#000" d="M27.52 17.173c.49.32.628.978.307 1.468l-7.212 11.03a1.06 1.06 0 0 1-1.601.205l-4.667-4.243a1.06 1.06 0 1 1 1.427-1.57l3.746 3.406 6.532-9.989a1.06 1.06 0 0 1 1.468-.307"/></g><g id="clipboard-copy"><path fill="#000" fill-rule="evenodd" d="M8 2v2h10V2zm-2-.5A1.5 1.5 0 0 1 7.5 0h11A1.5 1.5 0 0 1 20 1.5V2h1a3 3 0 0 1 3 3v9h-2V5a1 1 0 0 0-1-1h-1v.5A1.5 1.5 0 0 1 18.5 6h-11A1.5 1.5 0 0 1 6 4.5V4H5a1 1 0 0 0-1 1v20a1 1 0 0 0 1 1h7v2H5a3 3 0 0 1-3-3V5a3 3 0 0 1 3-3h1z" clip-rule="evenodd"/><path fill="#000" d="M28 29a1 1 0 1 1-2 0 1 1 0 0 1 2 0m0-4a1 1 0 1 1-2 0 1 1 0 0 1 2 0m0-4a1 1 0 1 1-2 0 1 1 0 0 1 2 0m0-4a1 1 0 1 1-2 0 1 1 0 0 1 2 0m-4 0a1 1 0 1 1-2 0 1 1 0 0 1 2 0m-4 0a1 1 0 1 1-2 0 1 1 0 0 1 2 0m-4 0a1 1 0 1 1-2 0 1 1 0 0 1 2 0m0 4a1 1 0 1 1-2 0 1 1 0 0 1 2 0m0 4a1 1 0 1 1-2 0 1 1 0 0 1 2 0m0 4a1 1 0 1 1-2 0 1 1 0 0 1 2 0m4 0a1 1 0 1 1-2 0 1 1 0 0 1 2 0m4 0a1 1 0 1 1-2 0 1 1 0 0 1 2 0"/></g><circle id="color" cx="15" cy="15" r="13" fill="#000"/><path id="cross-2" fill="#000" d="M23.563 8.063a1.15 1.15 0 1 0-1.626-1.626L15 13.374 8.063 6.437a1.15 1.15 0 0 0-1.626 1.626L13.374 15l-6.937 6.937a1.15 1.15 0 1 0 1.626 1.626L15 16.626l6.937 6.937a1.15 1.15 0 1 0 1.626-1.626L16.626 15z"/><g id="cross-circle"><path fill="#000" d="M19.442 11.893a.944.944 0 0 0-1.334-1.335L15 13.665l-3.107-3.107a.944.944 0 0 0-1.335 1.335L13.665 15l-3.107 3.108a.944.944 0 0 0 1.335 1.334L15 16.335l3.108 3.107a.944.944 0 1 0 1.334-1.334L16.335 15z"/><path stroke="#000" stroke-width="2" d="M15 27.295c6.79 0 12.295-5.505 12.295-12.296S21.79 2.704 15 2.704 2.704 8.209 2.704 14.999 8.21 27.295 15 27.295Z"/></g><path id="dash-dashed" fill="#000" fill-rule="evenodd" d="M12.465 2.247a13.1 13.1 0 0 1 5.07 0 1.61 1.61 0 1 1-.625 3.16 9.8 9.8 0 0 0-3.82 0 1.61 1.61 0 1 1-.625-3.16M10.01 4.633a1.61 1.61 0 0 1-.442 2.234 9.8 9.8 0 0 0-2.7 2.7 1.61 1.61 0 0 1-2.678-1.79A13.1 13.1 0 0 1 7.776 4.19a1.61 1.61 0 0 1 2.234.442m9.98 0a1.61 1.61 0 0 1 2.234-.442 13.1 13.1 0 0 1 3.585 3.585 1.61 1.61 0 1 1-2.676 1.792 9.8 9.8 0 0 0-2.7-2.7 1.61 1.61 0 0 1-.443-2.235M4.14 11.197a1.61 1.61 0 0 1 1.267 1.893 9.8 9.8 0 0 0 0 3.82 1.61 1.61 0 1 1-3.16.625 13.1 13.1 0 0 1 0-5.07 1.61 1.61 0 0 1 1.893-1.268m21.72 0a1.61 1.61 0 0 1 1.893 1.268 13.1 13.1 0 0 1 0 5.07 1.61 1.61 0 1 1-3.16-.625 9.8 9.8 0 0 0 0-3.82 1.61 1.61 0 0 1 1.267-1.893M4.633 19.99a1.61 1.61 0 0 1 2.234.442 9.8 9.8 0 0 0 2.7 2.7 1.61 1.61 0 0 1-1.791 2.677 13.1 13.1 0 0 1-3.585-3.585 1.61 1.61 0 0 1 .442-2.234m20.734 0a1.61 1.61 0 0 1 .442 2.234 13.1 13.1 0 0 1-3.585 3.585 1.61 1.61 0 1 1-1.792-2.676 9.8 9.8 0 0 0 2.7-2.7 1.61 1.61 0 0 1 2.235-.443m-14.17 5.87a1.61 1.61 0 0 1 1.893-1.267 9.8 9.8 0 0 0 3.82 0 1.61 1.61 0 1 1 .625 3.16 13.1 13.1 0 0 1-5.07 0 1.61 1.61 0 0 1-1.268-1.893" clip-rule="evenodd"/><path id="dash-dotted" fill="#000" d="M17 3.792a2 2 0 1 1-4 0 2 2 0 0 1 4 0m0 22a2 2 0 1 1-4 0 2 2 0 0 1 4 0m5.232-19.527a2 2 0 1 1-3.464-2 2 2 0 0 1 3.464 2m-11 19.053a2 2 0 1 1-3.464-2 2 2 0 0 1 3.464 2m14.294-14.294a2 2 0 1 1-2-3.465 2 2 0 0 1 2 3.465m-19.052 11a2 2 0 1 1-2-3.465 2 2 0 0 1 2 3.465M26 16.792a2 2 0 1 1 0-4 2 2 0 0 1 0 4m-22 0a2 2 0 1 1 0-4 2 2 0 0 1 0 4m19.526 5.232a2 2 0 1 1 2-3.465 2 2 0 0 1-2 3.465m-19.052-11a2 2 0 1 1 2-3.465 2 2 0 0 1-2 3.465m14.294 14.294a2 2 0 1 1 3.464-2 2 2 0 0 1-3.464 2m-11-19.053a2 2 0 1 1 3.464-2 2 2 0 0 1-3.464 2"/><path id="dash-draw" fill="#000" fill-rule="evenodd" d="M21.888 15.733c0-4.16-4.022-6.81-8.776-6.81-3.63 0-6.13 2.641-6.84 5.246-1.311 4.806 1.622 8.859 5.403 9.922 6.038 1.19 10.213-2.599 10.213-8.358M17.143 2.184c4.913.72 8.952 4.417 10.281 9.17C31.281 24.46 14.814 33.131 6.271 24.59-3.459 14.861 4.831.187 17.143 2.184" clip-rule="evenodd"/><circle id="dash-solid" cx="15" cy="15" r="11.5" stroke="#000" stroke-width="3"/><g id="disconnected"><path fill="#000" fill-rule="evenodd" d="M14.625 8.09C8.943 8.198 3.91 10.772.702 14.71c-.408.502-.287 1.234.232 1.618.542.401 1.305.269 1.732-.253 2.48-3.038 6.22-5.132 10.493-5.604zm-3.828 6.22c-2.234.778-4.154 2.157-5.533 3.926-.361.463-.236 1.122.236 1.472.531.393 1.283.236 1.695-.28q.557-.7 1.244-1.287zm9.572 2.961 1.153-1.874c1.25.754 2.34 1.718 3.214 2.84.361.462.236 1.121-.236 1.47-.531.394-1.283.237-1.695-.28a9.5 9.5 0 0 0-2.436-2.156m-2.893 4.701 1.092-1.775a5.9 5.9 0 0 1 1.665 1.678c.255.393.119.904-.258 1.182-.558.413-1.377.127-1.81-.415a3.8 3.8 0 0 0-.69-.67m5.775-9.384 1.22-1.983a17.7 17.7 0 0 1 4.827 4.106c.408.5.287 1.233-.232 1.617-.542.401-1.305.269-1.732-.253a15.2 15.2 0 0 0-4.083-3.487" clip-rule="evenodd"/><rect width="3" height="33.372" x="23.376" y=".169" fill="#000" rx="1.5" transform="rotate(31.606 23.376 .17)"/></g><g id="discord"><g clip-path="url(#a)"><path fill="#000" d="M8.161 14.024a2.53 2.53 0 0 1 1.84-.824c.69.003 1.351.3 1.838.824.488.525.761 1.236.761 1.976s-.273 1.45-.76 1.976A2.53 2.53 0 0 1 10 18.8a2.53 2.53 0 0 1-1.839-.825A2.9 2.9 0 0 1 7.401 16c0-.74.273-1.45.76-1.976m9.998 0a2.53 2.53 0 0 1 1.839-.824c.69.003 1.352.3 1.839.824.487.525.76 1.236.76 1.976s-.273 1.45-.76 1.976a2.53 2.53 0 0 1-1.84.824 2.53 2.53 0 0 1-1.838-.825A2.9 2.9 0 0 1 17.398 16c0-.74.273-1.45.76-1.976"/><path stroke="#000" stroke-linecap="round" stroke-linejoin="round" stroke-width="2" d="M12 6.8c-.209-.715-1.248-2.082-2-2.2-1.53.167-3.97 1.024-5.4 1.8-1.025 1.172-2.08 4.156-2.49 5.8-.685 2.736-1.066 6.048-1.115 9.2.956 1.819 4.434 3.8 6.505 4 .483-.524 1.9-2.8 1.9-2.8m8.595-15.8c.209-.715 1.248-2.082 2-2.2 1.53.167 3.97 1.024 5.4 1.8 1.025 1.172 2.08 4.156 2.49 5.8.685 2.736 1.066 6.048 1.115 9.2-.956 1.819-4.434 3.8-6.505 4-.483-.524-1.9-2.8-1.9-2.8M7 9c.6-.8 3-2 8-2s7.4 1.2 8 2M5.8 20.4C6.6 21.6 8.4 23 15 23s8.4-1.4 9.2-2.6"/></g><defs><clipPath id="a"><path fill="#fff" d="M0 0h30v30H0z"/></clipPath></defs></g><path id="distribute-horizontal" fill="#000" d="M2 12h9a1 1 0 0 1 1 1v4a1 1 0 0 1-1 1H2zm16 1a1 1 0 0 1 1-1h9v6h-9a1 1 0 0 1-1-1zM0 3a1 1 0 0 1 2 0v24a1 1 0 1 1-2 0zm28 0a1 1 0 1 1 2 0v24a1 1 0 0 1-2 0z"/><path id="distribute-vertical" fill="#000" d="M12 2h6v9a1 1 0 0 1-1 1h-4a1 1 0 0 1-1-1zm0 17a1 1 0 0 1 1-1h4a1 1 0 0 1 1 1v9h-6zM2 1a1 1 0 0 1 1-1h24a1 1 0 1 1 0 2H3a1 1 0 0 1-1-1m0 28a1 1 0 0 1 1-1h24a1 1 0 1 1 0 2H3a1 1 0 0 1-1-1"/><circle id="dot" cx="14.5" cy="15.5" r="4.5" fill="#000"/><path id="dots-horizontal" fill="#000" d="M7.25 15a2.25 2.25 0 1 1-4.5 0 2.25 2.25 0 0 1 4.5 0m10 0a2.25 2.25 0 1 1-4.5 0 2.25 2.25 0 0 1 4.5 0m10 0a2.25 2.25 0 1 1-4.5 0 2.25 2.25 0 0 1 4.5 0"/><path id="dots-vertical" fill="#000" d="M17.25 5a2.25 2.25 0 1 1-4.5 0 2.25 2.25 0 0 1 4.5 0m0 10a2.25 2.25 0 1 1-4.5 0 2.25 2.25 0 0 1 4.5 0m0 10a2.25 2.25 0 1 1-4.5 0 2.25 2.25 0 0 1 4.5 0"/><path id="drag-handle-dots" fill="#000" d="M11 9.25a2.25 2.25 0 1 0 0-4.5 2.25 2.25 0 0 0 0 4.5m8 0a2.25 2.25 0 1 0 0-4.5 2.25 2.25 0 0 0 0 4.5M21.25 15a2.25 2.25 0 1 1-4.5 0 2.25 2.25 0 0 1 4.5 0M11 17.25a2.25 2.25 0 1 0 0-4.5 2.25 2.25 0 0 0 0 4.5M21.25 23a2.25 2.25 0 1 1-4.5 0 2.25 2.25 0 0 1 4.5 0M11 25.25a2.25 2.25 0 1 0 0-4.5 2.25 2.25 0 0 0 0 4.5"/><path id="duplicate" fill="#000" fill-rule="evenodd" d="M2 19a3 3 0 0 0 3 3h3v-2H5a1 1 0 0 1-1-1V5a1 1 0 0 1 1-1h14a1 1 0 0 1 1 1v3h-9a3 3 0 0 0-3 3v14a3 3 0 0 0 3 3h14a3 3 0 0 0 3-3V11a3 3 0 0 0-3-3h-3V5a3 3 0 0 0-3-3H5a3 3 0 0 0-3 3zm8-8a1 1 0 0 1 1-1h14a1 1 0 0 1 1 1v14a1 1 0 0 1-1 1H11a1 1 0 0 1-1-1z" clip-rule="evenodd"/><path id="edit" stroke="#000" stroke-linecap="round" stroke-linejoin="round" stroke-width="2" d="M24 9.273 11.795 21.477a.5.5 0 0 1-.156.106L6 24l2.417-5.639a.5.5 0 0 1 .106-.156L20.727 6z"/><path id="external-link" stroke="#000" stroke-linecap="round" stroke-linejoin="round" stroke-width="2" d="M13 5H7a2 2 0 0 0-2 2v16a2 2 0 0 0 2 2h16a2 2 0 0 0 2-2v-6M19 5h6m0 0v6m0-6L13 17"/><g id="fill-fill"><path fill="#000" fill-rule="evenodd" d="M26 4H8v2h14a2 2 0 0 1 2 2v14h2zM6 4v2H4a2 2 0 0 0-2 2v18a2 2 0 0 0 2 2h18a2 2 0 0 0 2-2v-2h2a2 2 0 0 0 2-2V4a2 2 0 0 0-2-2H8a2 2 0 0 0-2 2m16 22H4V8h18z" clip-rule="evenodd"/><path fill="#000" d="M3 7h20v20H3z"/></g><path id="fill-none" fill="#000" fill-rule="evenodd" d="M8 4h18v18h-2V8a2 2 0 0 0-2-2H8zM6 6V4a2 2 0 0 1 2-2h18a2 2 0 0 1 2 2v18a2 2 0 0 1-2 2h-2v2a2 2 0 0 1-2 2H4a2 2 0 0 1-2-2V8a2 2 0 0 1 2-2zm16 18v2H4V8h2v14a2 2 0 0 0 2 2zm0-2H8V8h14z" clip-rule="evenodd"/><g id="fill-pattern"><path fill="#000" fill-rule="evenodd" d="M26 4H8v2h14a2 2 0 0 1 2 2v14h2zM6 4v2H4a2 2 0 0 0-2 2v18a2 2 0 0 0 2 2h18a2 2 0 0 0 2-2v-2h2a2 2 0 0 0 2-2V4a2 2 0 0 0-2-2H8a2 2 0 0 0-2 2m16 22H4V8h18z" clip-rule="evenodd"/><path fill="#000" fill-rule="evenodd" d="M23.438 15.553a.97.97 0 0 1 0 1.417l-1.49 1.418a1.09 1.09 0 0 1-1.49 0 .97.97 0 0 1 0-1.418l1.49-1.417a1.09 1.09 0 0 1 1.49 0m-4.468 5.67a.97.97 0 0 0 0-1.418 1.09 1.09 0 0 0-1.49 0l-1.49 1.417a.97.97 0 0 0 0 1.418 1.09 1.09 0 0 0 1.49 0zm-4.468 2.834a.97.97 0 0 1 0 1.418l-1.49 1.417a1.09 1.09 0 0 1-1.49 0 .97.97 0 0 1 0-1.417l1.49-1.418a1.09 1.09 0 0 1 1.49 0m0-17.01a.97.97 0 0 1 0 1.418l-1.49 1.418a1.09 1.09 0 0 1-1.49 0 .97.97 0 0 1 0-1.418l1.49-1.417a1.09 1.09 0 0 1 1.49 0m-4.469 5.67a.97.97 0 0 0 0-1.417 1.09 1.09 0 0 0-1.489 0l-1.49 1.417a.97.97 0 0 0 0 1.418 1.09 1.09 0 0 0 1.49 0zm-4.467 2.835a.97.97 0 0 1 0 1.418l-1.49 1.417a1.09 1.09 0 0 1-1.49 0 .97.97 0 0 1 0-1.417l1.49-1.417a1.09 1.09 0 0 1 1.49 0M23.437 11.3a.97.97 0 0 0 0-1.418 1.09 1.09 0 0 0-1.489 0l-1.49 1.418a.97.97 0 0 0 0 1.417 1.09 1.09 0 0 0 1.49 0zm-4.467 2.835a.97.97 0 0 1 0 1.417l-1.49 1.418a1.09 1.09 0 0 1-1.49 0 .97.97 0 0 1 0-1.418l1.49-1.417a1.09 1.09 0 0 1 1.49 0m-4.468 5.67a.97.97 0 0 0 0-1.418 1.09 1.09 0 0 0-1.49 0l-1.49 1.418a.97.97 0 0 0 0 1.417 1.09 1.09 0 0 0 1.49 0zm-4.468 2.835a.97.97 0 0 1 0 1.417l-1.49 1.418a1.09 1.09 0 0 1-1.49 0 .97.97 0 0 1 0-1.418l1.49-1.417a1.09 1.09 0 0 1 1.49 0m0-15.593-1.49 1.418a1.09 1.09 0 0 1-1.49 0 .97.97 0 0 1 0-1.418c1.105-1.05 4.772-1.705 2.98 0M5.566 11.3a.97.97 0 0 0 0-1.418 1.09 1.09 0 0 0-1.49 0L2.586 11.3a.97.97 0 0 0 0 1.417 1.09 1.09 0 0 0 1.49 0zm17.871 9.922a.97.97 0 0 1 0 1.418l-1.489 1.417a1.09 1.09 0 0 1-1.49 0 .97.97 0 0 1 0-1.417l1.49-1.418a1.09 1.09 0 0 1 1.49 0m-4.468 5.67a.97.97 0 0 0 0-1.417 1.09 1.09 0 0 0-1.489 0l-1.49 1.417c-1.818 1.731 1.86 1.066 2.98 0m0-17.01a.97.97 0 0 0 0-1.417 1.09 1.09 0 0 0-1.489 0l-1.49 1.417a.97.97 0 0 0 0 1.418 1.09 1.09 0 0 0 1.49 0zm-4.468 2.835a.97.97 0 0 1 0 1.418l-1.489 1.417a1.09 1.09 0 0 1-1.49 0 .97.97 0 0 1 0-1.417l1.49-1.418a1.09 1.09 0 0 1 1.49 0m-4.467 5.67a.97.97 0 0 0 0-1.417 1.09 1.09 0 0 0-1.49 0l-1.49 1.417a.97.97 0 0 0 0 1.418 1.09 1.09 0 0 0 1.49 0zm-4.468 2.835a.97.97 0 0 1 0 1.418l-1.49 1.417a1.09 1.09 0 0 1-1.49 0 .97.97 0 0 1 0-1.417l1.49-1.418a1.09 1.09 0 0 1 1.49 0" clip-rule="evenodd"/></g><path id="fill-semi" fill="#000" fill-rule="evenodd" d="M26 4H8v2h14a2 2 0 0 1 2 2v14h2zM6 4v2H4a2 2 0 0 0-2 2v18a2 2 0 0 0 2 2h18a2 2 0 0 0 2-2v-2h2a2 2 0 0 0 2-2V4a2 2 0 0 0-2-2H8a2 2 0 0 0-2 2m16 22H4V8h18z" clip-rule="evenodd"/><g id="fill-solid"><path fill="#000" fill-rule="evenodd" d="M26 4H8v2h14a2 2 0 0 1 2 2v14h2zM6 4v2H4a2 2 0 0 0-2 2v18a2 2 0 0 0 2 2h18a2 2 0 0 0 2-2v-2h2a2 2 0 0 0 2-2V4a2 2 0 0 0-2-2H8a2 2 0 0 0-2 2m16 22H4V8h18z" clip-rule="evenodd"/><path fill="#000" fill-opacity=".32" d="M4 8h18v18H4z"/></g><g id="follow"><path fill="#000" d="M19 15a4 4 0 1 1-8 0 4 4 0 0 1 8 0"/><path stroke="#000" stroke-width="2" d="M26 15c0 1.77-1.077 3.496-3.07 4.825C20.946 21.149 18.145 22 15 22s-5.945-.851-7.93-2.175C5.076 18.496 4 16.77 4 15s1.077-3.496 3.07-4.825C9.054 8.851 11.855 8 15 8s5.945.851 7.93 2.175C24.924 11.504 26 13.23 26 15Z"/></g><g id="following"><path stroke="#000" stroke-width="2" d="M26 15c0 1.77-1.077 3.496-3.07 4.825C20.946 21.149 18.145 22 15 22s-5.945-.851-7.93-2.175C5.076 18.496 4 16.77 4 15s1.077-3.496 3.07-4.825C9.054 8.851 11.855 8 15 8s5.945.851 7.93 2.175C24.924 11.504 26 13.23 26 15Z"/><path fill="#000" d="M12 15c0 2.21-1.567 4-3.5 4S5 17.21 5 15s1.567-4 3.5-4 3.5 1.79 3.5 4"/></g><path id="font-draw" stroke="#000" stroke-linecap="round" stroke-width="3.2" d="M22.965 11.963c-3.936 0-7.305 6.369-3.908 9.663s5.787-4.173 5.853-7.028 1.406 5.128 3.293 7.47M1.8 18.58s4.336-1.311 11.29-1.399m-9.367-6.373a159 159 0 0 0-.085 6.217m0 0c.014 3.29.08 4.733-.395 5.165-.294.268-.16-2.19.395-5.165Zm0 0c.779-4.18 2.384-9.384 4.788-9.499 4.116-.197 1.386 8.11 5.823 15.055"/><path id="font-mono" fill="#000" d="m11.358 23.935-1.277-4.61H4.69l-1.25 4.61H0L5.106 5.752h4.741l5.132 18.183zM7.503 9.113h-.209l-2.006 7.424h4.22zm20.543 14.822q-1.224 0-1.901-.599-.652-.625-.782-1.72h-.13a3.4 3.4 0 0 1-1.433 1.955q-1.069.677-2.631.677-2.032 0-3.23-1.068-1.2-1.068-1.199-2.97 0-4.065 5.966-4.064h2.37v-.886q0-1.275-.625-1.927t-2.032-.652q-1.276 0-2.058.496-.781.495-1.328 1.276l-1.902-1.615q.625-1.12 2.006-1.876 1.407-.78 3.621-.781 2.657 0 4.142 1.25 1.51 1.224 1.51 3.673v6.33H30v2.501zm-5.757-1.98q1.198 0 1.98-.547.808-.573.808-1.537v-1.797h-2.293q-2.735 0-2.735 1.72v.52q0 .808.599 1.225.6.416 1.641.416"/><path id="font-sans" fill="#000" d="m12.504 24-1.42-4.515h-6.29L3.399 24H0L5.935 6.296h4.16L15.979 24zM7.99 9.34h-.126l-2.258 7.28h4.667zM28.2 24q-1.066 0-1.7-.609-.61-.634-.761-1.674h-.152q-.33 1.294-1.344 1.953-1.015.634-2.511.634-2.03 0-3.12-1.065t-1.09-2.84q0-2.055 1.47-3.044 1.471-1.015 4.185-1.015h2.258v-.964q0-1.116-.584-1.724-.583-.61-1.877-.61-1.14 0-1.851.508a4.8 4.8 0 0 0-1.167 1.167l-1.927-1.725a5.5 5.5 0 0 1 1.952-1.826q1.218-.71 3.222-.71 2.688 0 4.083 1.217t1.395 3.5v6.24H30V24zm-5.378-2.055q1.09 0 1.852-.482.76-.48.76-1.42v-1.75h-2.08q-2.535 0-2.536 1.623v.431q0 .812.508 1.218.533.38 1.496.38"/><path id="font-serif" fill="#000" d="M0 22.003h1.262L6.706 6.215H9.8l5.445 15.788h1.262v1.485H9.65v-1.485h2.054l-1.287-3.885H4.454l-1.286 3.885H5.22v1.485H0zm4.9-5.444h5.073L7.498 8.888h-.124zm16.785 7.226q-2.004 0-2.97-.965-.964-.966-.964-2.673 0-1.88 1.36-2.846 1.387-.965 4.307-.965h1.756v-1.559q0-1.51-.618-2.276-.619-.792-2.03-.792-1.088 0-1.682.321v.1q.248.147.47.47.248.296.248.84 0 .719-.446 1.189-.42.445-1.262.445-.717 0-1.188-.47-.445-.47-.445-1.237 0-.594.322-1.139.346-.57 1.014-.99.669-.444 1.633-.692.99-.273 2.277-.273 2.475 0 3.712 1.139 1.237 1.113 1.237 3.143v7.473H30v1.237q-.37.248-.99.371a5.4 5.4 0 0 1-1.262.149q-1.237 0-1.782-.594-.544-.618-.544-1.56v-.073h-.124a4.4 4.4 0 0 1-.445.816 3.2 3.2 0 0 1-.693.718q-.42.297-1.04.495-.593.198-1.435.198m1.262-1.98q.99 0 1.609-.47.618-.47.618-1.584v-2.079h-1.41q-1.485 0-2.128.545-.62.52-.619 1.51v.445q0 .84.52 1.237.544.396 1.41.396"/><path id="geo-arrow-down" stroke="#000" stroke-linecap="round" stroke-linejoin="round" stroke-width="2" d="m15 26.823 11.654-14.165a1 1 0 0 0-.772-1.635H21.8v-8.2H8.2v8.2H4.118a1 1 0 0 0-.772 1.635z"/><path id="geo-arrow-left" stroke="#000" stroke-linecap="round" stroke-linejoin="round" stroke-width="2" d="m3 14.823 14.165 11.654a1 1 0 0 0 1.635-.772v-4.082H27v-13.6h-8.2V3.94a1 1 0 0 0-1.635-.772z"/><path id="geo-arrow-right" stroke="#000" stroke-linecap="round" stroke-linejoin="round" stroke-width="2" d="M27 14.823 12.835 3.168a1 1 0 0 0-1.635.772v4.083H3v13.6h8.2v4.082a1 1 0 0 0 1.635.772z"/><path id="geo-arrow-up" stroke="#000" stroke-linecap="round" stroke-linejoin="round" stroke-width="2" d="M15 2.823 3.346 16.987a1 1 0 0 0 .772 1.636H8.2v8.2h13.6v-8.2h4.082a1 1 0 0 0 .772-1.636z"/><g id="geo-check-box"><path stroke="#000" stroke-width="2" d="M25 3a2 2 0 0 1 2 2v20a2 2 0 0 1-2 2H5a2 2 0 0 1-2-2V5a2 2 0 0 1 2-2z"/><path stroke="#000" stroke-linecap="round" stroke-width="2" d="m8 15 5 7m9-14-9 14"/></g><path id="geo-cloud" stroke="#000" stroke-width="2" d="m22.324 12.395.02.863.857.105a5.861 5.861 0 0 1-.724 11.676H7.524a5.86 5.86 0 0 1-.725-11.676l.857-.105.02-.863a7.326 7.326 0 0 1 14.648 0Z"/><path id="geo-diamond" stroke="#000" stroke-width="2" d="M16.414 1.97 28.03 13.587a2 2 0 0 1 0 2.828L16.414 28.03a2 2 0 0 1-2.828 0L1.97 16.414a2 2 0 0 1 0-2.828L13.586 1.97a2 2 0 0 1 2.828 0Z"/><path id="geo-ellipse" stroke="#000" stroke-width="2" d="M27 15c0 6.627-5.373 12-12 12S3 21.627 3 15 8.373 3 15 3s12 5.373 12 12Z"/><path id="geo-heart" stroke="#1D1D1D" stroke-linecap="round" stroke-linejoin="round" stroke-width="2" d="M2 10.118C2 .954 14.025.954 15 8.31c.975-7.355 13-7.355 13 1.81 0 7.835-9.75 10.85-13 16.88-3.25-6.03-13-9.044-13-16.882"/><path id="geo-hexagon" stroke="#000" stroke-width="2" d="M14.009 3.217a2 2 0 0 1 1.983 0l8.825 5.038a2 2 0 0 1 1.009 1.737v10.016a2 2 0 0 1-1.009 1.737l-8.825 5.038a2 2 0 0 1-1.983 0l-8.826-5.038a2 2 0 0 1-1.009-1.737V9.992a2 2 0 0 1 1.009-1.737z"/><path id="geo-octagon" stroke="#000" stroke-width="2" d="M14.242 3.224a2 2 0 0 1 1.516 0l7.082 2.9a2 2 0 0 1 1.087 1.079l2.915 6.957a2 2 0 0 1 0 1.546l-2.915 6.957a2 2 0 0 1-1.087 1.078l-7.082 2.9a2 2 0 0 1-1.516 0l-7.082-2.9a2 2 0 0 1-1.087-1.078l-2.915-6.957a2 2 0 0 1 0-1.546l2.915-6.957A2 2 0 0 1 7.16 6.125z"/><path id="geo-oval" stroke="#000" stroke-width="2" d="M15 3c4.852 0 8 3.821 8 8.817v6.366C23 23.18 19.852 27 15 27c-4.82 0-7.948-3.771-8-8.723v-6.46C7 6.82 10.148 3 15 3Z"/><path id="geo-pentagon" stroke="#000" stroke-width="2" d="M13.824 3.84a2 2 0 0 1 2.352 0L26.2 11.124a2 2 0 0 1 .727 2.236l-3.83 11.787a2 2 0 0 1-1.902 1.382H8.804a2 2 0 0 1-1.902-1.383L3.072 13.36a2 2 0 0 1 .727-2.236z"/><path id="geo-rectangle" stroke="#000" stroke-width="2" d="M25 3a2 2 0 0 1 2 2v20a2 2 0 0 1-2 2H5a2 2 0 0 1-2-2V5a2 2 0 0 1 2-2z"/><path id="geo-rhombus-2" stroke="#000" stroke-width="2" d="M5.771 3a2 2 0 0 0-1.949 2.45l4.616 20A2 2 0 0 0 10.386 27H24.23a2 2 0 0 0 1.949-2.45l-4.616-20A2 2 0 0 0 19.613 3z"/><path id="geo-rhombus" stroke="#000" stroke-width="2" d="M24.229 3a2 2 0 0 1 1.949 2.45l-4.616 20A2 2 0 0 1 19.613 27H5.771a2 2 0 0 1-1.949-2.45l4.616-20A2 2 0 0 1 10.386 3z"/><path id="geo-star" stroke="#000" stroke-width="2" d="m7.347 17.74-.81.587.81-.588-4.113-5.66 6.654-2.161a2 2 0 0 0 1-.727L15 3.531l4.112 5.66.809-.588-.81.588a2 2 0 0 0 1.001.727l6.654 2.161-4.113 5.66a2 2 0 0 0-.382 1.176v6.996l-6.653-2.162-.309.95.31-.95a2 2 0 0 0-1.237 0l.309.95-.31-.95-6.653 2.162v-6.996a2 2 0 0 0-.381-1.176Z"/><path id="geo-trapezoid" stroke="#000" stroke-width="2" d="M19.614 3a2 2 0 0 1 1.948 1.55l4.616 20a2 2 0 0 1-1.95 2.45H5.772a2 2 0 0 1-1.949-2.45l4.616-20A2 2 0 0 1 10.386 3z"/><path id="geo-triangle" stroke="#000" stroke-linejoin="round" stroke-width="2" d="M27.55 26H2.45L15 4z"/><path id="geo-x-box" stroke="#000" stroke-width="2" d="M25 3a2 2 0 0 1 2 2v20a2 2 0 0 1-2 2H5a2 2 0 0 1-2-2V5a2 2 0 0 1 2-2zM3 3l24 24m0-24L3 27"/><path id="github" fill="#000" fill-rule="evenodd" d="M14.999.5C6.993.5.5 6.992.5 15c0 6.406 4.154 11.841 9.916 13.76.726.132.99-.316.99-.7 0-.345-.012-1.256-.02-2.466-4.033.876-4.884-1.944-4.884-1.944-.66-1.675-1.61-2.121-1.61-2.121-1.317-.9.1-.881.1-.881 1.455.102 2.22 1.494 2.22 1.494 1.294 2.216 3.395 1.576 4.22 1.204.133-.936.507-1.575.921-1.937-3.22-.367-6.605-1.61-6.605-7.167 0-1.584.566-2.877 1.493-3.89-.15-.367-.647-1.842.142-3.838 0 0 1.217-.39 3.987 1.485A14 14 0 0 1 15 7.512c1.232.006 2.472.166 3.63.487 2.769-1.875 3.984-1.485 3.984-1.485.791 1.996.294 3.47.145 3.837.93 1.014 1.49 2.307 1.49 3.891 0 5.57-3.39 6.796-6.62 7.155.52.448.984 1.333.984 2.686 0 1.938-.018 3.502-.018 3.977 0 .388.262.84.997.698C25.349 26.836 29.5 21.405 29.5 15 29.5 6.99 23.007.5 14.999.5" clip-rule="evenodd"/><path id="group" fill="#000" d="M2.9 1.9a1 1 0 0 0-1 1v4a1 1 0 0 0 2 0v-3h3a1 1 0 1 0 0-2zm9 0a1 1 0 1 0 0 2h6a1 1 0 1 0 0-2zm-1 25a1 1 0 0 1 1-1h6a1 1 0 1 1 0 2h-6a1 1 0 0 1-1-1m-7-15a1 1 0 1 0-2 0v6a1 1 0 1 0 2 0zm23-1a1 1 0 0 1 1 1v6a1 1 0 1 1-2 0v-6a1 1 0 0 1 1-1m-4-9a1 1 0 1 0 0 2h3v3a1 1 0 1 0 2 0v-4c0-.552-.45-1-1.002-1zm-20 20a1 1 0 0 1 1 1v3h3a1 1 0 1 1 0 2h-4a1 1 0 0 1-1-1v-4a1 1 0 0 1 1-1m25 1a1 1 0 1 0-2 0l-.002 3H22.9a1 1 0 1 0 0 2h4a1 1 0 0 0 1-1z"/><g id="horizontal-align-end"><rect width="2" height="22" x="19.661" y="4.419" fill="#000" rx="1"/><rect width="2" height="8" x="16.571" y="15.419" fill="#000" rx="1" transform="rotate(135 16.571 15.42)"/><rect width="2" height="8" x="15.157" y="14.005" fill="#000" rx="1" transform="rotate(45 15.157 14.005)"/></g><g id="horizontal-align-middle"><rect width="2" height="8" x="19.25" y="15" fill="#000" rx="1" transform="rotate(-45 19.25 15)"/><rect width="2" height="8" x="20.664" y="16.414" fill="#000" rx="1" transform="rotate(-135 20.664 16.414)"/><rect width="2" height="8" x="11.071" y="15" fill="#000" rx="1" transform="rotate(135 11.071 15)"/><rect width="2" height="8" x="9.657" y="13.586" fill="#000" rx="1" transform="rotate(45 9.657 13.586)"/><rect width="2" height="22" x="16.16" y="26" fill="#000" rx="1" transform="rotate(180 16.16 26)"/></g><g id="horizontal-align-start"><rect width="2" height="22" x="10.497" y="26.581" fill="#000" rx="1" transform="rotate(-180 10.497 26.581)"/><rect width="2" height="8" x="13.589" y="15.581" fill="#000" rx="1" transform="rotate(-45 13.589 15.581)"/><rect width="2" height="8" x="15.003" y="16.996" fill="#000" rx="1" transform="rotate(-135 15.003 16.996)"/></g><g id="info-circle"><path stroke="#000" stroke-width="2" d="M15 27.295c6.79 0 12.295-5.505 12.295-12.296S21.79 2.704 15 2.704 2.704 8.209 2.704 14.999 8.21 27.295 15 27.295Z"/><path stroke="#000" stroke-linecap="square" stroke-linejoin="round" stroke-width="2" d="M13 21h2m2 0h-2m0 0v-8h-2"/><circle cx="15" cy="9" r="1.5" fill="#000"/></g><g id="leading"><path stroke="#000" stroke-width="2" d="M26 15c0 1.77-1.077 3.496-3.07 4.825C20.946 21.149 18.145 22 15 22s-5.945-.851-7.93-2.175C5.076 18.496 4 16.77 4 15s1.077-3.496 3.07-4.825C9.054 8.851 11.855 8 15 8s5.945.851 7.93 2.175C24.924 11.504 26 13.23 26 15Z"/><path fill="#000" d="M25 15c0 2.21-1.567 4-3.5 4S18 17.21 18 15s1.567-4 3.5-4 3.5 1.79 3.5 4"/></g><path id="link" stroke="#000" stroke-linecap="round" stroke-width="2" d="M11 9H9.25c-1.162 0-1.742 0-2.225.092-1.984.379-3.534 1.867-3.929 3.772C3 13.327 3 13.884 3 15c0 1.115 0 1.673.096 2.136.395 1.905 1.945 3.393 3.929 3.772C7.508 21 8.088 21 9.25 21H11m8-12h1.75c1.162 0 1.742 0 2.226.092 1.983.379 3.533 1.867 3.928 3.772C27 13.327 27 13.884 27 15c0 1.115 0 1.673-.096 2.136-.395 1.905-1.945 3.393-3.928 3.772-.483.092-1.064.092-2.226.092H19m-8.998-6h10"/><g id="lock"><path stroke="#000" stroke-linejoin="round" stroke-width="2" d="M5 14.022a1 1 0 0 1 1-1h18a1 1 0 0 1 1 1v12a1 1 0 0 1-1 1H6a1 1 0 0 1-1-1z"/><path stroke="#000" stroke-width="2" d="M21 13.022V9.288c0-3.86-2.136-6.31-5.997-6.31S9 5.434 9 9.295v3.728"/></g><path id="menu" fill="#000" d="M3.923 6C3.413 6 3 6.448 3 7s.413 1 .923 1h22.154c.51 0 .923-.448.923-1s-.413-1-.923-1zM3 15c0-.552.413-1 .923-1h22.154c.51 0 .923.448.923 1s-.413 1-.923 1H3.923C3.413 16 3 15.552 3 15m0 8c0-.552.413-1 .923-1h22.154c.51 0 .923.448.923 1s-.413 1-.923 1H3.923C3.413 24 3 23.552 3 23"/><path id="minus" fill="#000" d="M4.5 15a1 1 0 0 1 1-1h19a1 1 0 1 1 0 2h-19a1 1 0 0 1-1-1"/><path id="mixed" fill="#000" d="M27.25 14.5a2.25 2.25 0 1 1-4.5 0 2.25 2.25 0 0 1 4.5 0m-20 0a2.25 2.25 0 1 1-4.5 0 2.25 2.25 0 0 1 4.5 0m10-10a2.25 2.25 0 1 1-4.5 0 2.25 2.25 0 0 1 4.5 0m0 20a2.25 2.25 0 1 1-4.5 0 2.25 2.25 0 0 1 4.5 0M6.5 4.75a1.5 1.5 0 1 1-3 0 1.5 1.5 0 0 1 3 0m0 20a1.5 1.5 0 1 1-3 0 1.5 1.5 0 0 1 3 0m10-10.25a1.5 1.5 0 1 1-3 0 1.5 1.5 0 0 1 3 0m10 10.25a1.5 1.5 0 1 1-3 0 1.5 1.5 0 0 1 3 0m0-20a1.5 1.5 0 1 1-3 0 1.5 1.5 0 0 1 3 0"/><path id="pack" stroke="#000" stroke-width="2" d="M1 2a1 1 0 0 1 1-1h10a1 1 0 0 1 1 1v10a1 1 0 0 1-1 1H2a1 1 0 0 1-1-1zm0 16a1 1 0 0 1 1-1h10a1 1 0 0 1 1 1v10a1 1 0 0 1-1 1H2a1 1 0 0 1-1-1zM17 2a1 1 0 0 1 1-1h10a1 1 0 0 1 1 1v10a1 1 0 0 1-1 1H18a1 1 0 0 1-1-1zm0 16a1 1 0 0 1 1-1h10a1 1 0 0 1 1 1v10a1 1 0 0 1-1 1H18a1 1 0 0 1-1-1z"/><path id="plus" fill="#000" d="M16 5.5a1 1 0 1 0-2 0V14H5.5a1 1 0 1 0 0 2H14v8.5a1 1 0 1 0 2 0V16h8.5a1 1 0 1 0 0-2H16z"/><g id="question-mark-circle"><path stroke="#000" stroke-width="2" d="M15 27.295c6.79 0 12.295-5.505 12.295-12.296S21.79 2.704 15 2.704 2.704 8.209 2.704 14.999C2.704 21.79 8.21 27.295 15 27.295Z"/><circle cx="15" cy="21" r="1.5" fill="#000"/><path stroke="#000" stroke-linecap="round" stroke-width="2.2" d="M11 12.5c0-2 1.7-3.75 4-3.75s4 1.75 4 3.75c0 3.19-4 3.15-4 4.9"/></g><g id="question-mark"><path stroke="#000" stroke-linecap="round" stroke-width="2.3" d="M9 8.2c0-3.161 3.039-5.5 6-5.5s6 2.339 6 5.5c0 5.503-6 5.345-6 10.8"/><path fill="#000" d="M16.75 24.965a1.75 1.75 0 1 1-3.5 0 1.75 1.75 0 0 1 3.5 0"/></g><path id="redo" fill="#000" fill-rule="evenodd" d="M20.293 4.293a1 1 0 0 1 1.414 0l4 4a1 1 0 0 1 0 1.414l-4 4a1 1 0 0 1-1.414-1.414L22.586 10H12a7 7 0 1 0 0 14h8a1 1 0 1 1 0 2h-8a9 9 0 1 1 0-18h10.586l-2.293-2.293a1 1 0 0 1 0-1.414" clip-rule="evenodd"/><g id="reset-zoom"><circle cx="12.408" cy="12.408" r="9.408" stroke="#000" stroke-width="2"/><path fill="#000" d="M27.08 25.24a1.301 1.301 0 0 1-1.84 1.84l-6.35-6.35a1.3 1.3 0 1 1 1.84-1.84z"/><path stroke="#000" stroke-linecap="round" stroke-width="2" d="M7.908 12.408a4.5 4.5 0 1 0 4.5-4.5"/><circle cx="9.216" cy="9.155" r="1" fill="#000"/></g><g id="rotate-ccw"><path fill="#000" d="M15.597 7.186A.25.25 0 0 0 16 6.99V5c3.963 0 6.37.727 7.821 2.179C25.273 8.63 26 11.037 26 15a1 1 0 1 0 2 0c0-4.112-.735-7.206-2.765-9.235C23.205 3.735 20.113 3 16 3V1.011a.25.25 0 0 0-.403-.197l-3.843 2.989a.25.25 0 0 0 0 .395z"/><path fill="#000" fill-rule="evenodd" d="M3.5 9A1.5 1.5 0 0 0 2 10.5v17A1.5 1.5 0 0 0 3.5 29h17a1.5 1.5 0 0 0 1.5-1.5v-17A1.5 1.5 0 0 0 20.5 9zm.5 2v16h16V11z" clip-rule="evenodd"/></g><g id="rotate-cw"><path fill="#000" d="M14.403 7.217A.25.25 0 0 1 14 7.02V5.03c-3.963 0-6.37.728-7.821 2.18C4.727 8.66 4 11.068 4 15.03a1 1 0 0 1-2 0c0-4.112.735-7.205 2.765-9.235S9.888 3.031 14 3.031V1.042a.25.25 0 0 1 .403-.197l3.843 2.988a.25.25 0 0 1 0 .395z"/><path fill="#000" fill-rule="evenodd" d="M26.5 9.03a1.5 1.5 0 0 1 1.5 1.5v17a1.5 1.5 0 0 1-1.5 1.5h-17a1.5 1.5 0 0 1-1.5-1.5v-17a1.5 1.5 0 0 1 1.5-1.5zm-.5 2v16H10v-16z" clip-rule="evenodd"/></g><path id="send-backward" stroke="#000" stroke-linecap="round" stroke-linejoin="round" stroke-width="2" d="M21.5 17.5 15 24m0 0-6.5-6.5M15 24V6"/><path id="send-to-back" stroke="#000" stroke-linecap="round" stroke-linejoin="round" stroke-width="2" d="M21.5 14.5 15 21m0 0-6.5-6.5M15 21V3m12 24H3"/><path id="share-1" stroke="#000" stroke-width="2" d="M11 15a4 4 0 1 1-8 0 4 4 0 0 1 8 0Zm16-8a4 4 0 1 1-8 0 4 4 0 0 1 8 0Zm0 16a4 4 0 1 1-8 0 4 4 0 0 1 8 0Zm-8-2-8-5m8-7-8 5"/><path id="size-extra-large" fill="#000" d="m4.444 5.792 3.63 6.134h.14l3.648-6.134h4.298l-5.493 9 5.616 9h-4.377l-3.691-6.144h-.14L4.382 23.79H.023l5.634-9-5.528-9zm14.003 18v-18h3.806v14.862h7.716v3.137z"/><path id="size-large" fill="#000" d="M9 23.792v-18h3.806v14.862h7.717v3.137z"/><path id="size-medium" fill="#000" d="M5 5.792h4.693l4.957 12.093h.211l4.957-12.094h4.694v18H20.82V12.077h-.15l-4.657 11.628h-2.514L8.841 12.032h-.15v11.76H5z"/><path id="size-small" fill="#000" d="M18.065 11.068q-.103-1.035-.881-1.608t-2.112-.573q-.907 0-1.53.257-.625.248-.959.692a1.67 1.67 0 0 0-.325 1.01q-.016.47.197.82.222.35.607.607.385.247.89.436.504.18 1.077.308l1.573.376q1.146.257 2.104.684a6.4 6.4 0 0 1 1.659 1.052q.701.625 1.086 1.471.393.846.402 1.941-.01 1.608-.821 2.788-.804 1.17-2.326 1.821-1.514.642-3.651.642-2.12 0-3.694-.65-1.566-.65-2.446-1.924-.872-1.283-.915-3.173h3.583q.06.881.504 1.471.454.582 1.206.88.761.292 1.719.291.94 0 1.633-.273.702-.274 1.086-.761.385-.488.385-1.12 0-.59-.35-.992-.343-.402-1.01-.684-.658-.282-1.616-.514l-1.907-.478q-2.214-.54-3.497-1.685t-1.274-3.087q-.009-1.59.846-2.779.864-1.187 2.369-1.856 1.505-.667 3.42-.667 1.95 0 3.404.667 1.462.668 2.274 1.856t.838 2.754z"/><path id="spline-cubic" stroke="#000" stroke-linecap="round" stroke-width="2" d="M6 6v2c0 5.6 0 8.4 1.09 10.54a10 10 0 0 0 4.37 4.37C13.6 24 16.4 24 22 24h2"/><path id="spline-line" stroke="#000" stroke-linecap="round" stroke-width="2" d="M6 6v18h18"/><path id="stack-horizontal" stroke="#000" stroke-linecap="round" stroke-width="2.6" d="M3 28V2m8 26V2m8 26V2m8 26V2"/><path id="stack-vertical" stroke="#000" stroke-linecap="round" stroke-width="2.6" d="M28 27H2m26-8H2m26-8H2m26-8H2"/><g id="status-offline"><path fill="#000" fill-rule="evenodd" d="M14.624 8.09C8.943 8.198 3.91 10.772.702 14.71c-.408.502-.287 1.234.232 1.618.542.401 1.305.269 1.732-.253 2.48-3.038 6.22-5.132 10.493-5.604zm-3.828 6.22c-2.233.778-4.153 2.157-5.532 3.926-.361.463-.236 1.122.236 1.472.531.393 1.283.236 1.695-.28q.557-.7 1.244-1.287zm9.573 2.961 1.153-1.874c1.25.754 2.34 1.718 3.214 2.84.361.462.236 1.121-.236 1.47-.531.394-1.283.237-1.695-.28a9.5 9.5 0 0 0-2.436-2.156m-2.893 4.701 1.092-1.775a5.9 5.9 0 0 1 1.665 1.678c.255.393.119.904-.258 1.182-.558.413-1.377.127-1.81-.415a3.8 3.8 0 0 0-.69-.67m5.775-9.384 1.22-1.983a17.7 17.7 0 0 1 4.827 4.106c.408.5.287 1.233-.232 1.617-.542.401-1.305.269-1.732-.253a15.2 15.2 0 0 0-4.084-3.487" clip-rule="evenodd"/><rect width="3" height="33.372" x="23.376" y=".169" fill="#000" rx="1.5" transform="rotate(31.606 23.376 .17)"/></g><path id="stretch-horizontal" fill="#000" d="M2 12h26v6H2zM0 3a1 1 0 0 1 2 0v24a1 1 0 1 1-2 0zm28 0a1 1 0 1 1 2 0v24a1 1 0 0 1-2 0z"/><path id="stretch-vertical" fill="#000" d="M2 1a1 1 0 0 1 1-1h24a1 1 0 1 1 0 2H3a1 1 0 0 1-1-1m10 1h6v26h9a1 1 0 1 1 0 2H3a1 1 0 1 1 0-2h9z"/><path id="text-align-center" stroke="#000" stroke-linecap="round" stroke-width="2" d="M7 21h16M9 15h12M5 9h20"/><path id="text-align-left" stroke="#000" stroke-linecap="round" stroke-width="2" d="M5 21h16M5 15h10M5 9h20"/><path id="text-align-right" stroke="#000" stroke-linecap="round" stroke-width="2" d="M9 21h16m-10-6h10M5 9h20"/><g id="toggle-off"><rect width="28" height="18" x="1" y="7" stroke="#000" stroke-width="2" opacity=".32" rx="9"/><circle cx="10" cy="16" r="6" fill="#000" opacity=".32"/></g><g id="toggle-on"><circle cx="20" cy="16" r="6" fill="#000"/><rect width="28" height="18" x="1" y="7" stroke="#000" stroke-width="2" rx="9"/></g><path id="tool-arrow" stroke="#000" stroke-linecap="round" stroke-linejoin="round" stroke-width="2" d="M24 18.467V6m0 0H11.533M24 6 7 23"/><path id="tool-eraser" stroke="#000" stroke-linecap="round" stroke-linejoin="round" stroke-width="2" d="m6.736 13.66-3.43 3.43a2 2 0 0 0 0 2.828l5.304 5.304a5 5 0 0 0 7.071 0l1.308-1.308M6.736 13.66 17.854 2.543l10.253 10.253L16.99 23.914M6.736 13.66 16.99 23.914"/><path id="tool-frame" stroke="#000" stroke-linecap="round" stroke-linejoin="round" stroke-width="2" d="M10.2 27H5a2 2 0 0 1-2-2v-5.2M19.8 27H25a2 2 0 0 0 2-2v-5.2M3 10.2V5a2 2 0 0 1 2-2h5.2m9.6 0H25a2 2 0 0 1 2 2v5.2"/><path id="tool-hand" stroke="#000" stroke-linecap="round" stroke-linejoin="round" stroke-width="2" d="M8.636 16.022c-.19-.723-.38-1.618-.78-2.95-.757-2.49-2.075-4.8-2.723-7.326-.425-1.81 1.12-3.643 3.046-2.969 2.949 1.036 3.868 6.109 4.283 8.678l.152.856c-.203-3.707-.469-6.126 0-9.172.463-2.89 4.888-2.825 5.254.038.189 2.079.19 4.154.19 6.242 0 .437 0 3.082.038 2.797.114-1.256.171-6.07.647-7.498 1.04-3.19 4.893-2.028 5.083.876.157 2.1-.062 4.29-.114 6.394 0 .076-.02.57.038.342.574-1.786.076-6.736 3.187-6.119 1.027.204 2.932 1.59 1.542 6.289-1.96 6.631-4.5 9.498-4.5 16.5h-14c0-5-6.61-8.82-8.5-12.598-.418-.799-.626-1.807-.36-2.53.438-1.123 1.254-1.713 2.568-1.58 2.142.206 3.008 2.032 4.949 3.73"/><g id="tool-highlight"><path stroke="#000" stroke-linecap="round" stroke-linejoin="round" stroke-width="2" d="m13.102 25.123 13.593-14.711a2 2 0 0 0-.055-2.771l-3.275-3.276a2 2 0 0 0-2.777-.05L5.983 17.919m7.118 7.205-7.118-7.206m7.118 7.206c-.5-.167-1.8-.586-3-.586s-2.5 1-3 1.5m-1.118-8.12c.167.5.619 1.92.619 3.12s-1 2.5-1.5 3m2 2-1-1-1-1m2 2-1 1L2 27.14l3.103-3.103"/><path fill="#000" d="m2 26 2-2 2 2-1 1z"/></g><path id="tool-laser" stroke="#000" stroke-linecap="round" stroke-linejoin="round" stroke-width="2" d="m3.522 26.477 4.034-4.034m-4.034-1.816 2.358-.83m4.321 4.322-.829 2.358M27 7.364 13.111 21.252a.5.5 0 0 1-.707 0l-3.656-3.656a.5.5 0 0 1 0-.707L22.636 3z"/><path id="tool-line" stroke="#000" stroke-linecap="round" stroke-width="2" d="M25 5 5 25"/><g id="tool-media"><path fill="#000" fill-rule="evenodd" d="M15 7.398a3.602 3.602 0 1 0 0 7.204 3.602 3.602 0 0 0 0-7.204M13.398 11a1.602 1.602 0 1 1 3.204 0 1.602 1.602 0 0 1-3.204 0" clip-rule="evenodd"/><path fill="#000" fill-rule="evenodd" d="M4.5 2h21A2.5 2.5 0 0 1 28 4.5v21a2.5 2.5 0 0 1-2.5 2.5h-21A2.5 2.5 0 0 1 2 25.5v-21A2.5 2.5 0 0 1 4.5 2M26 4.5v14.086l-3.293-3.293a1 1 0 0 0-1.414 0l-5.543 5.543-7.019-7.518a1 1 0 0 0-1.438-.025L4 16.586V4.5a.5.5 0 0 1 .5-.5h21a.5.5 0 0 1 .5.5m-22 21v-6.086l3.975-3.975 7.014 7.513L17.747 26H4.5a.5.5 0 0 1-.5-.5m21.5.5h-5.055l-3.34-3.69L22 17.414l4 4V25.5a.5.5 0 0 1-.5.5" clip-rule="evenodd"/></g><g id="tool-note"><path stroke="#000" stroke-width="2" d="M17 27v-8a2 2 0 0 1 2-2h8"/><path stroke="#000" stroke-width="2" d="m17.579 26.45 8.799-8.359a2 2 0 0 0 .622-1.45V5a2 2 0 0 0-2-2H5a2 2 0 0 0-2 2v20a2 2 0 0 0 2 2h11.201a2 2 0 0 0 1.378-.55Z"/></g><g id="tool-pencil"><path stroke="#000" stroke-linecap="round" stroke-linejoin="round" stroke-width="2" d="m4.636 23.182 1.599-3.73a.5.5 0 0 1 .106-.157L22.636 3 27 7.364 10.705 23.659a.5.5 0 0 1-.157.106l-3.73 1.599m-2.182-2.182L3 27l3.818-1.636m-2.182-2.182 2.182 2.182"/><path fill="#000" d="m3 27 1.714-4L7 25.286z"/></g><path id="tool-pointer" stroke="#000" stroke-linejoin="round" stroke-width="2" d="m17.072 28.713 4.245-1.935-4.415-9.701 8.037-.355L7.123 1.287v23.55l5.525-5.826z"/><g id="tool-screenshot"><path stroke="#000" stroke-width="2" d="M20 15a5 5 0 1 1-10 0 5 5 0 0 1 10 0Z"/><rect width="4" height="4" x="21" y="5" fill="#000" rx="2"/><path stroke="#000" stroke-width="2" d="M25 3a2 2 0 0 1 2 2v20a2 2 0 0 1-2 2H5a2 2 0 0 1-2-2V5a2 2 0 0 1 2-2z"/></g><path id="tool-text" fill="#000" d="M11.509 24a1 1 0 1 0 0 2zm7 2a1 1 0 1 0 0-2zM7 5V4a1 1 0 0 0-1 1zm16 0h1a1 1 0 0 0-1-1zm-1 4a1 1 0 1 0 2 0zM6 9a1 1 0 0 0 2 0zm10 15.5v-19h-2v19zM11.509 26h7v-2h-7zM7 6h16V4H7zm17 3V5h-2v4zM8 9V5H6v4z"/><g id="trash"><path fill="#000" fill-rule="evenodd" d="M10.5 3.3v1.8h9V3.3zm10.8 1.8V2.85a1.35 1.35 0 0 0-1.35-1.35h-9.9A1.35 1.35 0 0 0 8.7 2.85V5.1H3.3a.9.9 0 0 0 0 1.8h1.961q0 .075.007.154l1.7 19.8A1.8 1.8 0 0 0 8.76 28.5h12.478a1.8 1.8 0 0 0 1.794-1.646l1.7-19.8q.006-.078.006-.154H26.7a.9.9 0 1 0 0-1.8zm1.639 1.8H7.06l1.7 19.8h12.478z" clip-rule="evenodd"/><path fill="#000" fill-rule="evenodd" d="M11.325 11.403a.9.9 0 0 1 .972.822l.9 10.8a.9.9 0 1 1-1.794.15l-.9-10.8a.9.9 0 0 1 .822-.972m6.3 12.594a.9.9 0 0 1-.822-.972l.9-10.8a.9.9 0 0 1 1.794.15l-.9 10.8a.9.9 0 0 1-.972.822" clip-rule="evenodd"/></g><g id="twitter"><path stroke="#000" stroke-linecap="round" stroke-linejoin="round" stroke-width="2" d="M20.72 4.137a5.254 5.254 0 0 0-5.253 5.256q.002.616.135 1.195a14.92 14.92 0 0 1-10.829-5.49 5.25 5.25 0 0 0-.71 2.641c0 1.823.928 3.432 2.337 4.374a5.24 5.24 0 0 1-2.38-.658v.068a5.256 5.256 0 0 0 4.214 5.152 5.3 5.3 0 0 1-2.372.09 5.26 5.26 0 0 0 4.908 3.647 10.54 10.54 0 0 1-6.526 2.25q-.636 0-1.254-.073a14.86 14.86 0 0 0 8.053 2.36c9.665 0 14.948-8.005 14.948-14.947 0-2.96-2.094-5.865-5.271-5.865"/><path fill="#000" d="M26.393 7.138a10.5 10.5 0 0 0 3.017-.827l-.003.003a10.7 10.7 0 0 1-2.62 2.718l-1.42-3.527a10.5 10.5 0 0 0 3.336-1.275 5.27 5.27 0 0 1-2.31 2.908"/></g><path id="undo" fill="#000" fill-rule="evenodd" d="M9.707 4.293a1 1 0 0 1 0 1.414L7.414 8H18a9 9 0 1 1 0 18h-8a1 1 0 1 1 0-2h8a7 7 0 1 0 0-14H7.414l2.293 2.293a1 1 0 0 1-1.414 1.414l-4-4a1 1 0 0 1 0-1.414l4-4a1 1 0 0 1 1.414 0" clip-rule="evenodd"/><g id="ungroup"><path fill="#000" d="M2.9 1.9a1 1 0 0 0-1 1v4a1 1 0 0 0 2 0v-3h3a1 1 0 1 0 0-2zm9 0a1 1 0 1 0 0 2h6a1 1 0 1 0 0-2zm-1 25a1 1 0 0 1 1-1h6a1 1 0 1 1 0 2h-6a1 1 0 0 1-1-1m-7-15a1 1 0 1 0-2 0v6a1 1 0 1 0 2 0zm23-1a1 1 0 0 1 1 1v6a1 1 0 1 1-2 0v-6a1 1 0 0 1 1-1m1 12a1 1 0 1 0-2 0l-.002 3H22.9a1 1 0 1 0 0 2h4a1 1 0 0 0 1-1z"/><path fill="#000" fill-rule="evenodd" d="M27.293 3.707 3.707 27.293a1 1 0 0 1-1.414-1.414L25.879 2.293a1 1 0 1 1 1.414 1.414" clip-rule="evenodd"/></g><g id="unlock"><path stroke="#000" stroke-linejoin="round" stroke-width="2" d="M5 15a1 1 0 0 1 1-1h18a1 1 0 0 1 1 1v12a1 1 0 0 1-1 1H6a1 1 0 0 1-1-1z"/><path stroke="#000" stroke-width="2" d="M21 14V8.272C21 4.412 18.858 2 14.997 2c-2.12 0-3.72.695-4.732 2C9.435 5.072 9 6.526 9 8.267"/></g><g id="vertical-align-end"><rect width="2" height="22" x="26" y="19.5" fill="#000" rx="1" transform="rotate(90 26 19.5)"/><rect width="2" height="8" x="15" y="16.41" fill="#000" rx="1" transform="rotate(-135 15 16.41)"/><rect width="2" height="8" x="16.414" y="14.996" fill="#000" rx="1" transform="rotate(135 16.414 14.996)"/></g><g id="vertical-align-middle"><rect width="2" height="8" x="15" y="19.09" fill="#000" rx="1" transform="rotate(45 15 19.09)"/><rect width="2" height="8" x="13.586" y="20.504" fill="#000" rx="1" transform="rotate(-45 13.586 20.504)"/><rect width="2" height="8" x="15" y="10.911" fill="#000" rx="1" transform="rotate(-135 15 10.911)"/><rect width="2" height="8" x="16.414" y="9.497" fill="#000" rx="1" transform="rotate(135 16.414 9.497)"/><rect width="2" height="22" x="4" y="16" fill="#000" rx="1" transform="rotate(-90 4 16)"/></g><g id="vertical-align-start"><rect width="2" height="22" x="4" y="10.5" fill="#000" rx="1" transform="rotate(-90 4 10.5)"/><rect width="2" height="8" x="15" y="13.592" fill="#000" rx="1" transform="rotate(45 15 13.592)"/><rect width="2" height="8" x="13.586" y="15.006" fill="#000" rx="1" transform="rotate(-45 13.586 15.006)"/></g><g id="warning-triangle"><circle cx="15.4" cy="19.439" r="1.5" fill="#000"/><path fill="#000" d="M14.054 10.46a1.347 1.347 0 1 1 2.692 0l-.308 5.001a1.04 1.04 0 0 1-2.076 0z"/><path stroke="#000" stroke-width="2" d="M28.483 23.858 15.52 1.332a.6.6 0 0 0-1.04 0L1.517 23.858a.6.6 0 0 0 .52.9h25.926a.6.6 0 0 0 .52-.9Z"/></g><g id="zoom-in"><circle cx="12.408" cy="12.408" r="9.408" stroke="#000" stroke-width="2"/><rect width="2.602" height="9.107" x="11.107" y="7.854" fill="#000" rx="1.301"/><rect width="2.602" height="9.107" x="16.961" y="11.107" fill="#000" rx="1.301" transform="rotate(90 16.96 11.107)"/><path fill="#000" d="M27.08 25.24a1.301 1.301 0 0 1-1.84 1.84l-6.35-6.35a1.3 1.3 0 1 1 1.84-1.84z"/></g><g id="zoom-out"><circle cx="12.408" cy="12.408" r="9.408" stroke="#000" stroke-width="2"/><rect width="2.602" height="9.107" x="16.961" y="11.107" fill="#000" rx="1.301" transform="rotate(90 16.961 11.107)"/><path fill="#000" d="M27.08 25.24a1.301 1.301 0 0 1-1.84 1.84l-6.35-6.35a1.3 1.3 0 1 1 1.84-1.84z"/></g></svg>